Coordinates
version=1
nRows=12
nColumns=24
inDegrees=yes

Units are S.I. units (second, meters, Newtons, ...)
Angles are in degrees.

endheader
time	pelvis_tilt	pelvis_list	pelvis_rotation	pelvis_tx	pelvis_ty	pelvis_tz	hip_flexion_r	hip_adduction_r	hip_rotation_r	knee_angle_r	ankle_angle_r	subtalar_angle_r	mtp_angle_r	hip_flexion_l	hip_adduction_l	hip_rotation_l	knee_angle_l	ankle_angle_l	subtalar_angle_l	mtp_angle_l	lumbar_extension	lumbar_bending	lumbar_rotation
      2.63000000	     49.04406843	      1.76449123	     -3.28656055	      0.75864079	      0.96444132	     -0.27551983	     17.75011865	    -14.10077733	      8.60706392	    -62.68026032	      6.99556673	     15.80375401	    -32.02292358	     11.66948534	    -10.26897223	     -3.95148763	    -46.50836575	     -1.52583217	     11.16924185	    -51.99746597	      0.00000000	      0.00000000	      0.00000000
      2.64000000	     49.09984427	      1.73598608	     -3.28310146	      0.75866547	      0.96448779	     -0.27559197	     17.66940091	    -14.07340065	      8.57424461	    -62.69350038	      6.98116175	     15.85025873	    -31.95328778	     11.74648552	     -9.99069553	     -4.27479154	    -43.66952092	     -1.60329137	     11.67836972	    -50.61178590	      0.00000000	      0.00000000	      0.00000000
      2.65000000	     49.17809846	      1.70318786	     -3.28430009	      0.75865700	      0.96452811	     -0.27563834	     17.57060743	    -14.03667399	      8.55242135	    -62.70628158	      6.97608145	     15.89783379	    -31.89407248	     11.80684960	     -9.68054546	     -4.49830520	    -40.94463228	     -1.58240328	     12.12834282	    -49.11914759	      0.00000000	      0.00000000	      0.00000000
      2.66000000	     49.27756848	      1.66435188	     -3.29168884	      0.75861687	      0.96457444	     -0.27565225	     17.45662013	    -13.99235904	      8.53908782	    -62.71865537	      6.98014441	     15.94094671	    -31.85667274	     11.85516570	     -9.34728207	     -4.63050941	    -38.35256738	     -1.46524512	     12.48684929	    -47.53041027	      0.00000000	      0.00000000	      0.00000000
      2.67000000	     49.39453524	      1.61962921	     -3.30537977	      0.75854378	      0.96462795	     -0.27565118	     17.33214573	    -13.94332259	      8.53039667	    -62.73147184	      6.99105114	     15.97471679	    -31.85212714	     11.90146640	     -8.99758276	     -4.67930651	    -35.91284117	     -1.26003678	     12.72775975	    -45.86388771	      0.00000000	      0.00000000	      0.00000000
      2.68000000	     49.52270505	      1.57088436	     -3.32413529	      0.75843982	      0.96468052	     -0.27565215	     17.20368817	    -13.89270424	      8.52258139	    -62.74521919	      7.00485692	     15.99558580	    -31.88900910	     11.95815794	     -8.63573524	     -4.65053428	    -33.64332133	     -0.98034867	     12.83401169	    -44.14492337	      0.00000000	      0.00000000	      0.00000000
      2.69000000	     49.65414938	      1.52063610	     -3.34576523	      0.75831526	      0.96472049	     -0.27564387	     17.07944128	    -13.84358309	      8.51339512	    -62.75884798	      7.01708631	     16.00161415	    -31.97155822	     12.03724355	     -8.26365935	     -4.54768351	    -31.55803804	     -0.64409900	     12.80003537	    -42.40483520	      0.00000000	      0.00000000	      0.00000000
      2.70000000	     49.78070556	      1.47200743	     -3.36801189	      0.75818641	      0.96474483	     -0.27560404	     16.96812566	    -13.79872166	      8.50283940	    -62.76944712	      7.02402594	     15.99254182	    -32.09842447	     12.14881944	     -7.88196684	     -4.37269234	    -29.66534309	     -0.27227082	     12.63328896	    -40.67931051	      0.00000000	      0.00000000	      0.00000000
      2.71000000	     49.89477791	      1.42898151	     -3.38961612	      0.75806635	      0.96476046	     -0.27552545	     16.87674237	    -13.76015663	      8.49287531	    -62.77321136	      7.02361784	     15.96979251	    -32.26233837	     12.30045233	     -7.49107448	     -4.12727958	    -27.96685804	      0.11269119	     12.35447095	    -39.00638096	      0.00000000	      0.00000000	      0.00000000
      2.72000000	     49.98952811	      1.39565365	     -3.41084599	      0.75795107	      0.96477521	     -0.27541862	     16.80863501	    -13.72886461	      8.48641761	    -62.76714737	      7.01565081	     15.93644334	    -32.45086336	     12.49651759	     -7.09158671	     -3.81416638	    -26.45759767	      0.48870441	     11.99608002	    -37.42410800	      0.00000000	      0.00000000	      0.00000000
      2.73000000	     50.05962633	      1.37483702	     -3.43282775	      0.75782379	      0.96479313	     -0.27530035	     16.76367018	    -13.70477409	      8.48622086	    -62.75003068	      7.00136680	     15.89701651	    -32.64814855	     12.73703363	     -6.68450037	     -3.43777443	    -25.12746413	      0.83586878	     11.59928354	    -35.96813051	      0.00000000	      0.00000000	      0.00000000
      2.74000000	     50.10284491	      1.36701455	     -3.45609547	      0.75768061	      0.96481294	     -0.27517632	     16.74016886	    -13.68706954	      8.49409776	    -62.72196756	      6.98285021	     15.85694127	    -32.83734610	     13.01674303	     -6.27159785	     -3.00449978	    -23.96371404	      1.13809656	     11.20947877	    -34.66928850	      0.00000000	      0.00000000	      0.00000000
